<?xml version="1.0" standalone="no"?>
<!DOCTYPE svg PUBLIC "-//W3C//DTD SVG 20010904//EN"
 "http://www.w3.org/TR/2001/REC-SVG-20010904/DTD/svg10.dtd">
<svg version="1.0" xmlns="http://www.w3.org/2000/svg"
 width="300.000000pt" height="311.000000pt" viewBox="0 0 300.000000 311.000000"
 preserveAspectRatio="xMidYMid meet">
<metadata>
Created by potrace 1.10, written by Peter Selinger 2001-2011
</metadata>
<g transform="translate(0.000000,311.000000) scale(0.100000,-0.100000)"
fill="#000000" stroke="none">
<path d="M1354 2957 c-3 -8 -4 -27 -2 -43 3 -27 1 -29 -39 -32 -41 -3 -42 -2
-45 30 -2 23 -9 34 -22 36 -14 3 -17 0 -13 -12 3 -8 9 -49 13 -91 5 -55 11
-75 21 -75 11 0 14 11 11 43 l-3 42 41 3 c41 3 41 3 48 -38 4 -26 11 -40 19
-37 14 4 14 -1 3 99 -7 75 -20 105 -32 75z"/>
<path d="M1490 2916 c0 -24 -3 -64 -6 -90 -6 -38 -4 -46 10 -46 13 0 16 11 16
59 0 33 4 62 8 65 4 2 23 -24 41 -60 46 -88 66 -87 69 4 2 37 4 76 5 87 1 12
-4 20 -13 20 -11 0 -16 -16 -20 -64 l-5 -63 -35 66 c-43 81 -70 90 -70 22z"/>
<path d="M1038 2894 c-35 -19 -45 -57 -27 -108 18 -53 54 -74 96 -57 41 17 56
52 43 101 -10 37 -50 80 -74 80 -6 -1 -23 -7 -38 -16z m76 -57 c23 -48 11 -87
-28 -87 -30 0 -45 19 -53 64 -12 73 48 90 81 23z"/>
<path d="M1875 2888 c-2 -7 -16 -44 -30 -82 -20 -54 -23 -71 -13 -77 9 -6 16
2 24 24 15 45 40 47 48 4 7 -38 31 -75 41 -65 4 4 0 28 -9 54 -9 26 -16 51
-16 56 0 5 20 18 45 30 35 17 42 24 30 31 -11 6 -30 0 -61 -18 -25 -15 -48
-25 -51 -22 -2 3 3 19 11 36 9 16 16 32 16 36 0 11 -31 5 -35 -7z"/>
<path d="M863 2829 c-7 -7 0 -29 22 -71 38 -71 36 -91 -9 -86 -39 4 -48 -14
-14 -26 20 -7 33 -5 52 8 34 22 33 53 -4 123 -37 68 -34 65 -47 52z"/>
<path d="M2053 2735 l-41 -74 50 -31 c32 -20 54 -28 60 -22 6 6 -5 18 -31 33
-45 25 -47 27 -28 53 13 17 15 17 45 2 38 -20 42 -20 42 -2 0 8 -13 19 -30 25
-33 11 -35 14 -19 42 10 20 10 20 45 0 38 -23 54 -26 54 -12 0 9 -82 61 -97
61 -4 0 -27 -34 -50 -75z"/>
<path d="M2233 2623 c-33 -44 -48 -71 -42 -78 6 -6 18 1 33 20 20 24 26 27 39
17 11 -10 13 -21 6 -50 -6 -27 -4 -41 5 -50 11 -12 15 -6 20 31 6 39 10 45 36
51 21 4 31 13 36 32 6 23 1 33 -29 61 -20 18 -40 33 -44 33 -5 0 -31 -30 -60
-67z m91 18 c36 -40 -5 -80 -47 -47 -18 14 -18 15 0 40 22 31 25 31 47 7z"/>
<path d="M520 2589 c0 -6 25 -40 56 -75 l56 -63 44 36 c29 25 40 41 34 47 -6
6 -20 0 -41 -20 l-31 -29 -51 58 c-51 57 -67 67 -67 46z"/>
<path d="M2436 2515 c-20 -20 -20 -36 -1 -81 17 -40 13 -54 -15 -54 -23 0 -43
34 -35 60 8 26 -12 35 -25 10 -13 -24 9 -73 40 -90 47 -25 85 24 61 76 -24 54
-3 85 33 48 11 -10 14 -24 10 -41 -5 -19 -3 -24 7 -21 21 7 22 52 2 75 -25 30
-58 37 -77 18z"/>
<path d="M403 2466 c-18 -24 -33 -45 -33 -48 0 -2 30 -29 66 -58 l67 -54 33
39 c34 40 43 65 24 65 -5 0 -10 -3 -10 -7 0 -5 -12 -21 -26 -37 l-26 -29 -21
21 -21 22 28 29 c18 18 24 31 17 36 -6 3 -23 -8 -37 -25 -25 -29 -28 -30 -45
-14 -18 16 -17 17 6 49 25 31 32 55 18 55 -5 0 -23 -20 -40 -44z"/>
<path d="M2545 2332 c-44 -27 -57 -47 -53 -83 4 -39 45 -74 76 -65 30 10 17
38 -14 30 -19 -5 -26 -1 -36 21 -11 25 -10 30 21 57 22 20 41 28 58 26 34 -4
52 -32 36 -56 -6 -10 -8 -25 -3 -32 6 -9 12 -6 25 14 15 22 16 31 5 56 -21 52
-63 63 -115 32z"/>
<path d="M286 2311 c-9 -14 145 -104 157 -92 6 6 9 12 6 14 -24 18 -142 87
-149 87 -5 0 -11 -4 -14 -9z"/>
<path d="M224 2198 c-9 -14 20 -35 68 -50 21 -6 38 -14 38 -18 0 -4 -29 -10
-65 -14 -36 -4 -72 -9 -80 -12 -16 -7 -21 -34 -5 -34 5 0 41 -15 79 -34 38
-19 72 -31 75 -28 9 9 7 32 -3 32 -5 0 -31 10 -58 22 l-48 21 74 13 c64 11
104 28 90 36 -2 2 -39 20 -81 40 -53 26 -79 34 -84 26z"/>
<path d="M2658 2126 c-43 -17 -78 -37 -78 -45 0 -13 4 -13 65 5 16 4 23 -2 33
-29 16 -45 17 -44 -23 -57 -19 -6 -35 -18 -35 -26 0 -19 2 -19 92 18 45 19 78
38 78 46 0 9 -6 12 -16 8 -54 -21 -62 -19 -74 19 -13 40 -5 55 33 55 17 0 24
25 10 32 -5 2 -43 -10 -85 -26z"/>
<path d="M1290 2129 c0 -2 -1 -113 -3 -247 l-2 -242 111 0 c101 0 115 2 165
28 88 44 125 122 117 244 -7 87 -41 147 -106 185 -43 26 -57 28 -164 32 -65 2
-118 2 -118 0z m247 -58 c119 -55 141 -259 37 -350 -43 -38 -68 -45 -169 -45
l-80 -1 -3 208 -2 207 87 0 c65 0 99 -5 130 -19z"/>
<path d="M289 1936 c-2 -2 -40 -9 -84 -15 -44 -6 -83 -15 -88 -20 -9 -9 133
-121 153 -121 17 0 11 21 -11 39 -30 24 -19 81 16 81 27 0 42 17 28 31 -5 5
-11 7 -14 5z m-65 -58 c-9 -32 -9 -32 -38 -13 -31 21 -25 35 15 35 27 0 30 -3
23 -22z"/>
<path d="M2737 1890 c-43 -10 -80 -19 -82 -21 -1 -2 2 -28 8 -56 7 -34 16 -53
25 -53 14 0 13 15 -4 71 -3 13 8 19 58 29 35 6 69 14 76 16 13 4 17 35 5 33
-5 -1 -43 -9 -86 -19z"/>
<path d="M106 1707 c-19 -14 -41 -96 -29 -107 4 -4 45 -10 90 -12 l81 -5 6 32
c8 40 -6 80 -33 94 -27 15 -93 14 -115 -2z m112 -30 c6 -5 12 -22 12 -37 l0
-28 -62 5 c-35 3 -65 7 -67 9 -11 9 13 56 32 64 24 9 65 3 85 -13z"/>
<path d="M1234 1591 c-17 -17 25 -21 241 -21 189 0 245 3 245 13 0 9 -55 12
-241 12 -132 0 -243 -2 -245 -4z"/>
<path d="M2690 1541 c0 -24 8 -48 21 -65 17 -22 28 -26 69 -26 41 0 52 4 69
26 13 17 21 41 21 65 l0 39 -90 0 -90 0 0 -39z m160 -7 c0 -17 -44 -64 -59
-64 -27 0 -62 23 -71 46 -6 14 -8 29 -6 32 2 4 34 5 70 4 50 -3 66 -7 66 -18z"/>
<path d="M1310 1275 c0 -238 1 -245 20 -245 18 0 20 7 20 73 l0 73 51 54 c41
43 53 51 59 39 5 -8 48 -65 96 -127 70 -90 91 -112 112 -112 23 0 24 1 10 18
-43 49 -198 253 -198 259 0 4 46 54 102 110 97 97 101 103 73 102 -25 0 -52
-24 -165 -143 l-135 -142 -3 143 c-2 135 -4 143 -22 143 -19 0 -20 -8 -20
-245z"/>
<path d="M2674 1369 c-4 -8 1 -18 14 -27 36 -24 22 -92 -18 -92 -12 0 -20 -7
-20 -16 0 -12 6 -15 23 -11 12 4 55 11 95 18 43 7 72 17 72 24 0 11 -26 31
-132 99 -20 13 -28 14 -34 5z m101 -79 c17 -11 25 -20 19 -20 -6 0 -25 -3 -42
-6 -28 -6 -29 -4 -25 20 6 31 9 32 48 6z"/>
<path d="M255 1304 c4 -22 7 -43 8 -48 2 -10 -85 -35 -120 -36 -17 0 -23 -6
-23 -21 0 -15 4 -19 16 -15 9 4 49 14 88 22 39 9 72 17 73 18 1 0 -4 25 -11
55 -15 65 -43 87 -31 25z"/>
<path d="M2617 1153 c-14 -13 -6 -20 48 -38 30 -11 55 -22 55 -25 0 -3 -33
-13 -72 -21 -46 -9 -73 -19 -73 -27 0 -17 153 -84 161 -70 9 14 -3 23 -58 43
-26 10 -46 21 -43 25 2 4 27 10 55 14 65 9 106 24 94 35 -7 7 -150 71 -158 71
-2 0 -6 -3 -9 -7z"/>
<path d="M233 1106 c-40 -17 -73 -37 -73 -43 0 -17 15 -16 50 2 29 15 30 15
45 -21 20 -49 20 -50 -15 -63 -16 -5 -30 -17 -30 -25 0 -9 1 -16 3 -16 6 0
159 68 164 73 3 3 2 10 -2 16 -4 8 -15 6 -35 -4 -41 -21 -45 -20 -63 25 l-15
39 34 11 c19 6 34 18 34 26 0 19 -14 17 -97 -20z"/>
<path d="M2515 940 c-9 -14 -14 -9 68 -59 71 -43 87 -49 87 -28 0 6 -31 30
-68 52 -84 50 -79 48 -87 35z"/>
<path d="M387 923 c-14 -4 -15 -8 -7 -18 6 -8 18 -11 26 -8 19 7 44 -15 44
-38 0 -20 -39 -59 -70 -71 -12 -4 -27 0 -42 12 -20 17 -22 21 -10 41 10 16 11
24 2 33 -14 14 -30 -9 -30 -46 0 -62 72 -88 126 -46 39 30 44 38 44 75 0 22
-8 38 -26 52 -15 12 -29 20 -33 20 -3 -1 -14 -3 -24 -6z"/>
<path d="M2425 804 c-24 -29 -34 -49 -28 -55 6 -6 18 3 34 26 27 40 39 43 62
17 16 -17 15 -20 -8 -42 -27 -26 -32 -40 -12 -40 6 0 21 13 31 29 17 24 23 27
38 18 24 -15 23 -24 -7 -63 -16 -21 -21 -35 -14 -39 6 -4 11 -5 13 -4 1 2 17
23 35 47 19 24 30 47 25 51 -10 8 -103 80 -120 93 -7 5 -25 -8 -49 -38z"/>
<path d="M516 747 c-14 -11 -17 -21 -12 -45 3 -18 9 -45 12 -62 5 -25 3 -30
-14 -30 -25 0 -43 21 -40 46 2 11 -1 20 -7 22 -5 1 -10 -12 -10 -29 0 -45 43
-77 80 -61 29 13 32 39 9 83 -17 33 -13 59 9 59 21 0 48 -34 45 -56 -2 -10 2
-20 7 -22 15 -4 18 38 5 63 -7 13 -23 28 -37 34 -29 13 -26 14 -47 -2z"/>
<path d="M2292 667 c-44 -45 -41 -70 3 -27 l36 34 52 -59 c34 -37 58 -56 65
-51 9 5 -6 28 -45 71 -32 36 -63 64 -69 65 -5 0 -24 -15 -42 -33z"/>
<path d="M676 633 c-3 -3 -6 -23 -6 -43 0 -34 -3 -38 -30 -43 -47 -10 -51 -50
-9 -93 18 -19 38 -34 44 -34 18 0 116 138 103 146 -6 4 -21 -5 -34 -21 -19
-24 -25 -27 -38 -16 -11 10 -14 24 -9 56 5 39 -5 63 -21 48z m13 -120 c20 -18
20 -18 2 -43 -19 -24 -20 -24 -40 -6 -47 43 -11 89 38 49z"/>
<path d="M845 511 c-6 -11 32 -41 52 -41 19 0 24 -17 12 -43 l-11 -25 -32 19
c-37 23 -46 24 -46 5 0 -8 14 -19 30 -25 31 -10 37 -25 21 -50 -8 -12 -15 -10
-47 8 -22 14 -41 18 -46 13 -9 -9 71 -62 92 -62 9 0 94 150 88 154 -7 6 -101
56 -104 56 -1 0 -5 -4 -9 -9z"/>
<path d="M2052 494 c-31 -21 -28 -58 11 -126 23 -39 37 -54 46 -49 9 6 3 23
-23 69 -43 72 -40 97 10 88 37 -8 54 8 25 23 -27 15 -43 14 -69 -5z"/>
<path d="M1020 422 c0 -6 9 -31 20 -57 11 -26 18 -50 16 -54 -3 -4 -23 -16
-46 -26 -22 -10 -40 -22 -40 -27 0 -16 36 -8 72 17 50 34 60 32 42 -10 -17
-42 -17 -45 0 -45 15 0 70 155 60 171 -10 17 -21 9 -30 -23 -13 -46 -33 -41
-53 11 -14 40 -41 67 -41 43z"/>
<path d="M1840 400 c-38 -38 -12 -138 40 -155 30 -10 75 12 89 42 13 29 0 85
-27 116 -21 24 -77 22 -102 -3z m94 -43 c15 -31 16 -44 7 -63 -24 -53 -91 -15
-91 51 0 66 54 73 84 12z"/>
<path d="M1696 326 l6 -44 -41 -4 c-41 -4 -42 -3 -48 34 -3 24 -11 38 -21 38
-11 0 -13 -7 -9 -27 3 -16 9 -56 13 -90 5 -46 11 -63 22 -63 11 0 13 9 9 39
-4 34 -2 40 17 45 50 13 66 8 66 -24 0 -18 6 -33 15 -37 23 -8 24 -4 14 57 -5
30 -12 70 -15 88 -3 19 -11 32 -19 32 -11 0 -13 -10 -9 -44z"/>
<path d="M1346 289 c-9 -95 -8 -119 9 -119 11 0 15 16 17 68 l3 67 33 -58 c19
-31 41 -65 50 -74 16 -16 17 -14 24 28 12 82 9 149 -7 149 -11 0 -15 -16 -17
-67 l-3 -68 -38 68 c-21 37 -44 67 -51 67 -9 0 -15 -21 -20 -61z"/>
</g>
</svg>
